<?xml version="1.0" standalone="no"?>
<!DOCTYPE svg PUBLIC "-//W3C//DTD SVG 20010904//EN"
 "http://www.w3.org/TR/2001/REC-SVG-20010904/DTD/svg10.dtd">
<svg version="1.0" xmlns="http://www.w3.org/2000/svg"
 width="100.000000pt" height="100.000000pt" viewBox="0 0 100.000000 100.000000"
 preserveAspectRatio="xMidYMid meet">
<metadata>
Created by potrace 1.11, written by Peter Selinger 2001-2013
</metadata>
<g transform="translate(0.000000,100.000000) scale(0.100000,-0.100000)"
fill="#000000" stroke="none">
<path d="M469 930 c-19 -4 -46 -14 -59 -23 -14 -9 -30 -17 -38 -17 -25 0 -91
-62 -111 -105 -13 -28 -19 -56 -16 -81 2 -22 7 -65 11 -97 3 -32 3 -57 -2 -56
-21 4 -33 -2 -39 -20 -7 -23 13 -108 32 -136 7 -11 13 -38 13 -60 1 -75 59
-163 132 -201 41 -21 124 -29 173 -15 95 25 175 125 175 217 0 24 4 45 9 49
12 7 41 104 41 135 0 14 -8 24 -21 27 -19 5 -20 10 -13 72 3 36 8 74 10 83 5
30 -17 89 -50 137 -26 37 -43 50 -87 65 -75 26 -118 33 -160 26z"/>
</g>
</svg>
